#!OML:ASF E:\emotionWalksFemale\Project 1\Capture day 1\Session 1\Female1.ASF
:FULLY-SPECIFIED
:DEGREES
461
root 8.6737 15.1458 32.3688 -178.951 0.743717 -176.055
lowerback 7.02653 3.89072 4.11783
upperback -4.71064 5.80121 0.0597288
thorax -8.52898 2.63764 -3.05268
lowerneck -2.32103 -5.42675 -9.82662
upperneck 8.47424 -7.65021 7.79566
head 3.57385 -3.88544 3.63741
rclavicle -2.56184e-014 -1.2921e-014
rhumerus -24.9839 -1.56089 -73.6661
rradius 34.9632
rwrist 20.6145
rhand -5.71423 -55.4956
rfingers 7.12502
rthumb 20.1071 -444.475
lclavicle -2.56184e-014 -1.2921e-014
lhumerus -52.6865 3.1498 68.4278
lradius 55.3527
lwrist 6.64354
lhand -4.85737 -33.5632
lfingers 7.12502
lthumb 20.9304 -4.67246
rfemur 7.22034 19.9517 38.7607
rtibia 12.1832
rfoot -21.3538 -38.3066
rtoes 16.1558
lfemur -31.214 -4.39156 -17.7266
ltibia 55.9699
lfoot -18.2093 10.3286
ltoes -14.871
462
root 8.67348 15.1455 32.2415 -179.02 1.121 -176.019
lowerback 7.11362 4.083 4.19348
upperback -4.60517 6.07386 0.193426
thorax -8.45218 2.77264 -2.98999
lowerneck -2.78098 -5.60123 -10.0184
upperneck 8.586 -7.79707 7.53979
head 3.69588 -3.95683 3.56611
rclavicle -5.86912e-014 -1.07344e-014
rhumerus -24.0732 -0.93122 -73.44
rradius 35.5767
rwrist 20.214
rhand -5.77535 -54.217
rfingers 7.12502
rthumb 20.0483 -443.203
lclavicle -5.86912e-014 -1.07344e-014
lhumerus -52.7347 3.26744 68.1743
lradius 54.6353
lwrist 6.26323
lhand -5.51416 -32.6153
lfingers 7.12502
lthumb 20.2993 -3.65613
rfemur 8.65166 20.1776 39.071
rtibia 10.774
rfoot -20.815 -38.3262
rtoes 16.2008
lfemur -31.3171 -4.81183 -17.7015
ltibia 53.4657
lfoot -18.7971 10.928
ltoes -14.3436
463
root 8.67252 15.147 32.1129 -179.007 1.42249 -175.998
lowerback 7.03021 4.18981 4.25358
upperback -4.54439 6.22294 0.27729
thorax -8.3299 2.85 -2.94246
lowerneck -2.81074 -5.63871 -10.0787
upperneck 8.47274 -7.80402 7.32405
head 3.66207 -3.96469 3.50915
rclavicle -5.96354e-016 6.95746e-015
rhumerus -23.201 -0.178055 -73.3696
rradius 35.957
rwrist 19.4012
rhand -7.34414 -51.7067
rfingers 7.12502
rthumb 18.5398 -440.843
lclavicle -5.96354e-016 6.95746e-015
lhumerus -52.9148 3.57158 67.6113
lradius 53.9344
lwrist 5.606
lhand -5.44751 -31.9182
lfingers 7.12502
lthumb 20.3634 -2.96587
rfemur 10.0464 19.6095 39.1897
rtibia 9.1308
rfoot -20.5907 -37.484
rtoes 17.6532
lfemur -31.4913 -5.31085 -17.6543
ltibia 50.9043
lfoot -19.2425 11.5546
ltoes -13.3581
464
root 8.67111 15.1498 31.9857 -178.843 1.58649 -176.088
lowerback 7.02276 4.16412 4.48541
upperback -4.69418 6.20939 0.0785968
thorax -8.44432 2.81959 -3.28437
lowerneck -2.56703 -5.50593 -9.87552
upperneck 8.34236 -7.65401 7.30254
head 3.56011 -3.89116 3.48765
rclavicle -5.81942e-014 -2.06736e-014
rhumerus -22.5072 0.285076 -73.6672
rradius 36.3879
rwrist 19.3516
rhand -8.29763 -49.9498
rfingers 7.12502
rthumb 17.6224 -439.171
lclavicle -5.81942e-014 -2.06736e-014
lhumerus -53.3599 3.63725 66.5628
lradius 53.2516
lwrist 5.05776
lhand -4.54148 -31.6711
lfingers 7.12502
lthumb 21.2339 -2.81419
rfemur 11.5636 18.9607 39.0648
rtibia 6.76637
rfoot -19.707 -36.5589
rtoes 18.8119
lfemur -31.8709 -5.85699 -17.6941
ltibia 48.3283
lfoot -19.3758 12.3605
ltoes -12.7852
465
root 8.66802 15.151 31.8544 -178.802 1.85156 -176.064
lowerback 6.89321 4.21994 4.47302
upperback -4.65547 6.28499 0.191315
thorax -8.33456 2.86687 -3.15425
lowerneck -2.47116 -5.41672 -9.8937
upperneck 8.07117 -7.50684 7.19748
head 3.44694 -3.81875 3.47223
rclavicle -1.06573e-013 -2.54444e-014
rhumerus -21.6439 0.978379 -73.505
rradius 37.0334
rwrist 19.8189
rhand -7.01298 -50.2259
rfingers 7.12502
rthumb 18.8583 -439.332
lclavicle -1.06573e-013 -2.54444e-014
lhumerus -53.6929 4.04952 65.8974
lradius 52.4564
lwrist 4.42153
lhand -3.70164 -31.1891
lfingers 7.12502
lthumb 22.0404 -2.42509
rfemur 14.2242 18.385 38.9863
rtibia 2.32902
rfoot -17.0829 -35.7538
rtoes 18.793
lfemur -32.0566 -6.386 -17.6057
ltibia 45.7788
lfoot -19.474 13.0038
ltoes -14.2807
466
root 8.66406 15.1552 31.7193 -178.809 2.23921 -175.903
lowerback 6.89893 4.28422 4.76939
upperback -4.65695 6.40871 0.232002
thorax -8.30475 2.91354 -3.28938
lowerneck -2.47487 -5.31299 -9.93759
upperneck 7.94871 -7.36079 7.28373
head 3.4027 -3.74224 3.51499
rclavicle -1.96051e-014 3.97569e-015
rhumerus -20.9047 1.66442 -73.5382
rradius 37.6952
rwrist 20.3077
rhand -4.42529 -51.8294
rfingers 7.12502
rthumb 21.3455 -440.674
lclavicle -1.96051e-014 3.97569e-015
lhumerus -54.031 4.46895 65.0827
lradius 51.6141
lwrist 3.66811
lhand -2.69834 -29.8741
lfingers 7.12502
lthumb 23.0034 -1.22682
rfemur 15.9244 17.9108 39.0821
rtibia -1.27222e-014
rfoot -15.5928 -35.1317
rtoes 18.7128
lfemur -32.1027 -6.95691 -17.2951
ltibia 43.276
lfoot -19.4713 13.5902
ltoes -14.2135
467
root 8.66223 15.1602 31.5838 -178.734 2.60626 -175.858
lowerback 6.91624 4.34315 5.19553
upperback -4.74741 6.52399 0.0269033
thorax -8.33582 2.93648 -3.7583
lowerneck -2.47279 -5.2561 -9.62941
upperneck 7.91631 -7.29303 7.20923
head 3.3725 -3.7029 3.44725
rclavicle -3.55079e-014 -1.66979e-014
rhumerus -20.1439 1.84983 -73.8562
rradius 38.0314
rwrist 20.6706
rhand -3.29489 -52.1493
rfingers 7.12502
rthumb 22.4309 -440.867
lclavicle -3.55079e-014 -1.66979e-014
lhumerus -54.3888 4.55539 64.0778
lradius 50.827
lwrist 3.09341
lhand -1.22347 -28.0233
lfingers 7.12502
lthumb 24.418 0.440651
rfemur 16.3853 17.4377 39.0753
rtibia -1.43125e-014
rfoot -15.6164 -34.5267
rtoes 19.6399
lfemur -32.264 -7.64327 -17.0438
ltibia 40.9063
lfoot -19.0933 14.1797
ltoes -13.3677
468
root 8.65771 15.1569 31.4497 -178.733 2.94095 -175.907
lowerback 6.89134 4.46914 5.09854
upperback -4.7419 6.68898 0.107775
thorax -8.31986 3.02698 -3.6371
lowerneck -2.46555 -5.27551 -9.42257
upperneck 7.795 -7.27944 6.78958
head 3.31177 -3.70073 3.28812
rclavicle 2.55935e-014 7.35503e-015
rhumerus -19.3946 2.50567 -73.635
rradius 38.4541
rwrist 20.4287
rhand -3.99884 -51.2199
rfingers 7.12502
rthumb 21.7551 -440.017
lclavicle 2.55935e-014 7.35503e-015
lhumerus -54.855 4.76563 63.5398
lradius 50.08
lwrist 2.45103
lhand -0.277818 -27.7014
lfingers 7.12502
lthumb 25.3242 0.637272
rfemur 16.8924 16.9192 38.9408
rtibia -2.38542e-014
rfoot -15.5911 -33.9443
rtoes 20.3513
lfemur -32.3734 -8.52918 -16.8446
ltibia 38.6649
lfoot -18.797 14.8465
ltoes -13.1222
469
root 8.65052 15.1666 31.3189 -178.741 3.22089 -175.89
lowerback 6.94973 4.52814 5.1605
upperback -4.7448 6.78442 0.16393
thorax -8.349 3.07088 -3.62946
lowerneck -2.49755 -5.20734 -9.38463
upperneck 7.74445 -7.17301 6.70213
head 3.28876 -3.6477 3.26075
rclavicle -1.2101e-014 4.96962e-015
rhumerus -18.8369 3.47651 -73.5275
rradius 39.0798
rwrist 19.7455
rhand -5.66831 -49.9062
rfingers 7.12502
rthumb 20.1512 -438.881
lclavicle -1.2101e-014 4.96962e-015
lhumerus -55.2875 5.12278 62.8314
lradius 49.2234
lwrist 1.65413
lhand 0.162191 -28.3938
lfingers 7.12502
lthumb 25.7457 -0.115419
rfemur 17.368 16.3535 38.8402
rtibia 2.38542e-014
rfoot -14.9206 -33.4265
rtoes 19.5063
lfemur -32.4384 -9.62614 -16.4782
ltibia 36.6761
lfoot -19.0809 15.1956
ltoes -9.76631
470
root 8.64168 15.1702 31.185 -178.678 3.50549 -175.697
lowerback 6.96146 4.54122 5.48457
upperback -4.7981 6.84902 0.197094
thorax -8.37801 3.08486 -3.78382
lowerneck -2.48482 -5.07764 -9.37059
upperneck 7.69312 -7.00418 6.78461
head 3.25955 -3.56086 3.29357
rclavicle 1.58282e-014 -1.63003e-014
rhumerus -18.4038 4.43733 -73.6507
rradius 39.6404
rwrist 18.5319
rhand -8.5394 -47.2225
rfingers 7.12502
rthumb 17.3898 -436.465
lclavicle 1.58282e-014 -1.63003e-014
lhumerus -55.6818 5.55273 62.0118
lradius 48.2662
lwrist 0.856404
lhand 0.753817 -28.7345
lfingers 7.12502
lthumb 26.3122 -0.539508
rfemur 17.7997 15.8119 38.9149
rtibia 1.59028e-014
rfoot -13.4862 -32.9008
rtoes 16.4968
lfemur -32.6528 -10.9843 -15.7546
ltibia 34.8963
lfoot -19.1678 15.8331
ltoes -7.27712
471
root 8.63166 15.1713 31.0486 -178.594 3.87099 -175.537
lowerback 6.87198 4.58449 5.74898
upperback -4.825 6.94025 0.24441
thorax -8.32413 3.12018 -3.88144
lowerneck -2.61037 -4.97602 -9.29056
upperneck 7.74256 -6.85457 6.71053
head 3.27754 -3.48463 3.26233
rclavicle -4.08502e-014 -2.62396e-014
rhumerus -17.936 4.98734 -73.5283
rradius 40.6411
rwrist 19.7692
rhand -6.69638 -48.7324
rfingers 7.12502
rthumb 19.1628 -437.808
lclavicle -4.08502e-014 -2.62396e-014
lhumerus -55.8904 5.93695 61.3704
lradius 47.0228
lwrist 0.217329
lhand 0.654064 -28.3702
lfingers 7.12502
lthumb 26.2167 -0.160979
rfemur 18.2187 15.3606 38.9242
rtibia -1.59028e-014
rfoot -12.2555 -32.3077
rtoes 12.7156
lfemur -32.7092 -12.2021 -15.1313
ltibia 33.4294
lfoot -18.8292 17.4055
ltoes -15.9023
472
root 8.62285 15.178 30.9148 -178.497 4.21477 -175.48
lowerback 6.72668 4.63628 5.84303
upperback -4.82817 7.01822 0.299947
thorax -8.23203 3.16115 -3.86834
lowerneck -2.75652 -4.88353 -9.15
upperneck 7.80259 -6.70817 6.51719
head 3.29681 -3.41176 3.18425
rclavicle -1.4971e-014 -8.74653e-015
rhumerus -17.5843 6.40742 -73.538
rradius 41.3054
rwrist 17.8217
rhand -8.24015 -48.739
rfingers 7.12502
rthumb 17.6778 -437.955
lclavicle -1.4971e-014 -8.74653e-015
lhumerus -56.101 6.46146 60.6614
lradius 45.6603
lwrist -0.438972
lhand 0.286364 -27.4216
lfingers 7.12502
lthumb 25.8646 0.839503
rfemur 18.6028 14.898 38.8016
rtibia 3.18055e-014
rfoot -11.4363 -31.658
rtoes 9.12115
lfemur -32.8403 -13.7725 -14.4052
ltibia 32.0989
lfoot -19.3353 17.902
ltoes -6.34494
473
root 8.61289 15.1892 30.7802 -178.359 4.50712 -175.411
lowerback 6.5746 4.68112 6.03453
upperback -4.88084 7.09594 0.291972
thorax -8.17116 3.19297 -3.97692
lowerneck -2.71058 -4.78985 -9.03568
upperneck 7.67546 -6.58198 6.49858
head 3.23654 -3.34571 3.16923
rclavicle 3.19919e-014 1.33186e-014
rhumerus -16.9935 6.73401 -73.5378
rradius 41.5114
rwrist 17.7196
rhand -8.31918 -50.5851
rfingers 7.12502
rthumb 17.6017 -439.808
lclavicle 3.19919e-014 1.33186e-014
lhumerus -56.62 7.07179 59.5744
lradius 44.5974
lwrist -1.26538
lhand 1.11949 -27.2454
lfingers 7.12502
lthumb 26.6622 0.89681
rfemur 18.9596 14.4069 38.6499
rtibia -2.54444e-014
rfoot -11.256 -30.7854
rtoes 7.63137
lfemur -33.0323 -15.3564 -13.6615
ltibia 30.9749
lfoot -19.046 19.9251
ltoes -12.6543
474
root 8.59868 15.1977 30.6411 -178.237 4.83679 -175.433
lowerback 6.59782 4.75758 6.17736
upperback -5.02468 7.22905 0.244274
thorax -8.30646 3.24293 -4.13148
lowerneck -2.6187 -4.74775 -9.01935
upperneck 7.64983 -6.53561 6.50663
head 3.20966 -3.32438 3.17397
rclavicle -7.60351e-015 -1.07344e-014
rhumerus -17.2065 7.67812 -73.4507
rradius 43.0322
rwrist 17.6447
rhand -8.86952 -51.3777
rfingers 7.12502
rthumb 17.072 -440.648
lclavicle -7.60351e-015 -1.07344e-014
lhumerus -57.1364 7.59224 58.4166
lradius 43.3928
lwrist -2.19235
lhand 2.02906 -27.6174
lfingers 7.12502
lthumb 27.5324 0.38938
rfemur 19.3473 13.9613 38.3486
rtibia 2.22639e-014
rfoot -11.9675 -29.8603
rtoes 10.4198
lfemur -33.139 -16.8094 -13.1272
ltibia 30.054
lfoot -19.7716 21.0897
ltoes -8.34208
